<svg xmlns="http://www.w3.org/2000/svg" viewBox="0 0 500 500"><g id="freepik--dumbbells-2--inject-3"><path d="M323.7,309.28c-7.69,0-14-8.55-14-11.32,0-4,8.79-5.12,14-5.12s14,1.08,14,5.12C337.69,300.73,331.4,309.28,323.7,309.28ZM312.42,298c.14,1.45,5.11,8.58,11.28,8.58S334.83,299.45,335,298c-.34-.71-4.09-2.43-11.28-2.43S312.76,297.27,312.42,298Z" style="fill:#130B83"></path><g style="opacity:0.4"><path d="M323.7,309.28c-7.69,0-14-8.55-14-11.32,0-4,8.79-5.12,14-5.12s14,1.08,14,5.12C337.69,300.73,331.4,309.28,323.7,309.28ZM312.42,298c.14,1.45,5.11,8.58,11.28,8.58S334.83,299.45,335,298c-.34-.71-4.09-2.43-11.28-2.43S312.76,297.27,312.42,298Z"></path></g><path d="M323.7,292.39a35,35,0,0,0-8.54.89,1.82,1.82,0,0,0-1.31,2.19h0a1.82,1.82,0,0,0,2.21,1.34,32.26,32.26,0,0,1,7.64-.82,31.69,31.69,0,0,1,7.65.83,1.83,1.83,0,0,0,2.23-1.46h0a1.82,1.82,0,0,0-1.34-2.09A34.92,34.92,0,0,0,323.7,292.39Z" style="fill:#263238"></path><path d="M319.61,327.65h8.18a13,13,0,1,0-8.18,0Z" style="fill:#263238"></path><path d="M329.24,312.86a5.54,5.54,0,1,1-5.54-5.54A5.54,5.54,0,0,1,329.24,312.86Z" style="fill:#fff;opacity:0.9"></path><path d="M351.23,321.77H339.45a6.85,6.85,0,0,0-6.84,6.84v83.82h3.1V328.61a3.75,3.75,0,0,1,3.74-3.74h11.78a3.75,3.75,0,0,1,3.74,3.74v83.82h3.1V328.61A6.85,6.85,0,0,0,351.23,321.77Z" style="fill:#130B83"></path><rect x="280.72" y="327.18" width="78.17" height="3.57" style="fill:#263238"></rect><rect x="283.21" y="329.78" width="75.78" height="3.46" style="fill:#fff;opacity:0.5"></rect><rect x="280.72" y="327.18" width="27.11" height="3.57" style="opacity:0.5"></rect><rect x="280.72" y="385.28" width="78.17" height="3.57" style="fill:#263238"></rect><rect x="283.21" y="386.11" width="75.78" height="3.46" style="fill:#fff;opacity:0.5"></rect><rect x="280.72" y="385.28" width="27.11" height="3.57" style="opacity:0.5"></rect><path d="M300.17,321.77H288.39a6.85,6.85,0,0,0-6.84,6.84v83.82h3.1V328.61a3.75,3.75,0,0,1,3.74-3.74h11.78a3.75,3.75,0,0,1,3.74,3.74v83.82H307V328.61A6.85,6.85,0,0,0,300.17,321.77Z" style="fill:#130B83"></path><path d="M323.7,363.56c-9.2,0-16.72-10.23-16.72-13.54,0-4.83,10.51-6.12,16.72-6.12s16.73,1.29,16.73,6.12C340.43,353.33,332.9,363.56,323.7,363.56Zm-13.48-13.51c.16,1.74,6.1,10.27,13.48,10.27s13.31-8.51,13.49-10.27c-.41-.85-4.89-2.91-13.49-2.91S310.62,349.2,310.22,350.05Z" style="fill:#130B83"></path><g style="opacity:0.4"><path d="M323.7,363.56c-9.2,0-16.72-10.23-16.72-13.54,0-4.83,10.51-6.12,16.72-6.12s16.73,1.29,16.73,6.12C340.43,353.33,332.9,363.56,323.7,363.56Zm-13.48-13.51c.16,1.74,6.1,10.27,13.48,10.27s13.31-8.51,13.49-10.27c-.41-.85-4.89-2.91-13.49-2.91S310.62,349.2,310.22,350.05Z"></path></g><path d="M323.7,343.36a42.16,42.16,0,0,0-10.21,1.06,2.19,2.19,0,0,0-1.57,2.63h0a2.17,2.17,0,0,0,2.64,1.61,38.53,38.53,0,0,1,9.14-1,38,38,0,0,1,9.15,1,2.19,2.19,0,0,0,2.67-1.74h0a2.2,2.2,0,0,0-1.61-2.51A42.16,42.16,0,0,0,323.7,343.36Z" style="fill:#263238"></path><path d="M318.81,385.53h9.78a15.52,15.52,0,1,0-9.78,0Z" style="fill:#263238"></path><path d="M330.33,367.84a6.63,6.63,0,1,1-6.63-6.63A6.63,6.63,0,0,1,330.33,367.84Z" style="fill:#fff;opacity:0.9"></path></g><g id="freepik--dumbbells-1--inject-3"><path d="M164.21,411.92H150.56a11.51,11.51,0,0,1-11.49-11.79l1.33-51.44a11.43,11.43,0,0,1,11.49-11.2h3.45A11.47,11.47,0,0,1,166.67,347l8.87,51.44a11.5,11.5,0,0,1-11.33,13.45Zm-12.32-71.33a8.35,8.35,0,0,0-8.4,8.18l-1.33,51.44a8.4,8.4,0,0,0,8.4,8.61h13.65a8.4,8.4,0,0,0,8.28-9.82l-8.87-51.44a8.38,8.38,0,0,0-8.28-7Z"></path><rect x="53.68" y="361.63" width="115.58" height="3.57" style="fill:#263238"></rect><rect x="53.68" y="361.63" width="115.58" height="3.57" style="fill:#fff;opacity:0.5"></rect><rect x="53.68" y="361.63" width="27.11" height="3.57" style="opacity:0.5"></rect><rect x="53.68" y="399.24" width="121.51" height="3.57" style="fill:#263238"></rect><rect x="53.68" y="399.24" width="121.51" height="3.57" style="fill:#fff;opacity:0.5"></rect><rect x="53.68" y="399.24" width="32.7" height="3.57" style="opacity:0.5"></rect><path d="M138.48,351.44l-2.84-4.93a3.76,3.76,0,0,0-3.25-1.88H121a3.76,3.76,0,0,0-3.26,1.88l-2.84,4.93a3.75,3.75,0,0,0,0,3.75l2.84,4.93A3.76,3.76,0,0,0,121,362h11.35a3.76,3.76,0,0,0,3.25-1.88l2.84-4.93A3.75,3.75,0,0,0,138.48,351.44Z" style="fill:#130B83"></path><path d="M138.48,351.44l-2.84-4.93a3.76,3.76,0,0,0-3.25-1.88H121a3.76,3.76,0,0,0-3.26,1.88l-2.84,4.93a3.75,3.75,0,0,0,0,3.75l2.84,4.93A3.76,3.76,0,0,0,121,362h11.35a3.76,3.76,0,0,0,3.25-1.88l2.84-4.93A3.75,3.75,0,0,0,138.48,351.44Z" style="opacity:0.1"></path><path d="M132.39,344.63H126.7a3.76,3.76,0,0,0-3.25,1.88l-2.84,4.93a3.7,3.7,0,0,0,0,3.75l2.84,4.93A3.76,3.76,0,0,0,126.7,362h5.69a3.76,3.76,0,0,0,3.25-1.88l2.84-4.93a3.75,3.75,0,0,0,0-3.75l-2.84-4.93A3.76,3.76,0,0,0,132.39,344.63Z" style="opacity:0.2"></path><path d="M154.25,353.32c0,2.34-5.56,4.24-12.41,4.24s-12.41-1.9-12.41-4.24,5.56-4.25,12.41-4.25S154.25,351,154.25,353.32Z" style="fill:#130B83"></path><path d="M154.25,353.32c0,2.34-5.56,4.24-12.41,4.24s-12.41-1.9-12.41-4.24,5.56-4.25,12.41-4.25S154.25,351,154.25,353.32Z" style="opacity:0.1"></path><path d="M170.06,351.44l-2.84-4.93a3.76,3.76,0,0,0-3.25-1.88H152.61a3.76,3.76,0,0,0-3.25,1.88l-2.84,4.93a3.75,3.75,0,0,0,0,3.75l2.84,4.93a3.76,3.76,0,0,0,3.25,1.88H164a3.76,3.76,0,0,0,3.25-1.88l2.84-4.93A3.75,3.75,0,0,0,170.06,351.44Z" style="fill:#130B83"></path><path d="M170.06,351.44l-2.84-4.93a3.76,3.76,0,0,0-3.25-1.88H152.61a3.76,3.76,0,0,0-3.25,1.88l-2.84,4.93a3.75,3.75,0,0,0,0,3.75l2.84,4.93a3.76,3.76,0,0,0,3.25,1.88H164a3.76,3.76,0,0,0,3.25-1.88l2.84-4.93A3.75,3.75,0,0,0,170.06,351.44Z" style="opacity:0.1"></path><path d="M164,344.63h-5.69a3.76,3.76,0,0,0-3.25,1.88l-2.85,4.93a3.75,3.75,0,0,0,0,3.75l2.85,4.93a3.76,3.76,0,0,0,3.25,1.88H164a3.76,3.76,0,0,0,3.25-1.88l2.84-4.93a3.75,3.75,0,0,0,0-3.75l-2.84-4.93A3.76,3.76,0,0,0,164,344.63Z" style="fill:#130B83"></path><path d="M101.49,353.55l-2.28-3.94a3,3,0,0,0-2.6-1.5H87.53a3,3,0,0,0-2.61,1.5l-2.27,3.94a3,3,0,0,0,0,3l2.27,3.94A3,3,0,0,0,87.53,362h9.08a3,3,0,0,0,2.6-1.51l2.28-3.94A3,3,0,0,0,101.49,353.55Z" style="fill:#130B83"></path><path d="M101.49,353.55l-2.28-3.94a3,3,0,0,0-2.6-1.5H87.53a3,3,0,0,0-2.61,1.5l-2.27,3.94a3,3,0,0,0,0,3l2.27,3.94A3,3,0,0,0,87.53,362h9.08a3,3,0,0,0,2.6-1.51l2.28-3.94A3,3,0,0,0,101.49,353.55Z" style="opacity:0.1"></path><path d="M96.61,348.11H92.06a3,3,0,0,0-2.6,1.5l-2.28,3.94a3,3,0,0,0,0,3l2.28,3.94a3,3,0,0,0,2.6,1.51h4.55a3,3,0,0,0,2.6-1.51l2.28-3.94a3,3,0,0,0,0-3l-2.28-3.94A3,3,0,0,0,96.61,348.11Z" style="opacity:0.2"></path><ellipse cx="104.17" cy="355.05" rx="9.93" ry="3.4" style="fill:#130B83"></ellipse><ellipse cx="104.17" cy="355.05" rx="9.93" ry="3.4" style="opacity:0.1"></ellipse><path d="M126.75,353.55l-2.28-3.94a3,3,0,0,0-2.6-1.5h-9.08a3,3,0,0,0-2.6,1.5l-2.28,3.94a3,3,0,0,0,0,3l2.28,3.94a3,3,0,0,0,2.6,1.51h9.08a3,3,0,0,0,2.6-1.51l2.28-3.94A3,3,0,0,0,126.75,353.55Z" style="fill:#130B83"></path><path d="M126.75,353.55l-2.28-3.94a3,3,0,0,0-2.6-1.5h-9.08a3,3,0,0,0-2.6,1.5l-2.28,3.94a3,3,0,0,0,0,3l2.28,3.94a3,3,0,0,0,2.6,1.51h9.08a3,3,0,0,0,2.6-1.51l2.28-3.94A3,3,0,0,0,126.75,353.55Z" style="opacity:0.1"></path><path d="M121.87,348.11h-4.55a3,3,0,0,0-2.6,1.5l-2.27,3.94a3,3,0,0,0,0,3l2.27,3.94a3,3,0,0,0,2.6,1.51h4.55a3,3,0,0,0,2.6-1.51l2.28-3.94a3,3,0,0,0,0-3l-2.28-3.94A3,3,0,0,0,121.87,348.11Z" style="fill:#130B83"></path><path d="M73.8,355.24,72,352.09a2.39,2.39,0,0,0-2.08-1.21H62.64a2.41,2.41,0,0,0-2.09,1.21l-1.82,3.15a2.39,2.39,0,0,0,0,2.4l1.82,3.15A2.41,2.41,0,0,0,62.64,362H69.9A2.39,2.39,0,0,0,72,360.79l1.82-3.15A2.39,2.39,0,0,0,73.8,355.24Z" style="fill:#130B83"></path><path d="M73.8,355.24,72,352.09a2.39,2.39,0,0,0-2.08-1.21H62.64a2.41,2.41,0,0,0-2.09,1.21l-1.82,3.15a2.39,2.39,0,0,0,0,2.4l1.82,3.15A2.41,2.41,0,0,0,62.64,362H69.9A2.39,2.39,0,0,0,72,360.79l1.82-3.15A2.39,2.39,0,0,0,73.8,355.24Z" style="opacity:0.1"></path><path d="M69.9,350.88H66.26a2.39,2.39,0,0,0-2.08,1.21l-1.82,3.15a2.39,2.39,0,0,0,0,2.4l1.82,3.15A2.39,2.39,0,0,0,66.26,362H69.9A2.39,2.39,0,0,0,72,360.79l1.82-3.15a2.39,2.39,0,0,0,0-2.4L72,352.09A2.39,2.39,0,0,0,69.9,350.88Z" style="opacity:0.2"></path><path d="M83.89,356.44c0,1.5-3.56,2.72-7.94,2.72S68,357.94,68,356.44s3.55-2.72,7.94-2.72S83.89,354.94,83.89,356.44Z" style="fill:#130B83"></path><path d="M83.89,356.44c0,1.5-3.56,2.72-7.94,2.72S68,357.94,68,356.44s3.55-2.72,7.94-2.72S83.89,354.94,83.89,356.44Z" style="opacity:0.1"></path><path d="M94,355.24l-1.82-3.15a2.39,2.39,0,0,0-2.08-1.21H82.85a2.41,2.41,0,0,0-2.09,1.21l-1.82,3.15a2.39,2.39,0,0,0,0,2.4l1.82,3.15A2.41,2.41,0,0,0,82.85,362h7.26a2.39,2.39,0,0,0,2.08-1.21L94,357.64A2.39,2.39,0,0,0,94,355.24Z" style="fill:#130B83"></path><path d="M94,355.24l-1.82-3.15a2.39,2.39,0,0,0-2.08-1.21H82.85a2.41,2.41,0,0,0-2.09,1.21l-1.82,3.15a2.39,2.39,0,0,0,0,2.4l1.82,3.15A2.41,2.41,0,0,0,82.85,362h7.26a2.39,2.39,0,0,0,2.08-1.21L94,357.64A2.39,2.39,0,0,0,94,355.24Z" style="opacity:0.1"></path><path d="M90.11,350.88H86.47a2.39,2.39,0,0,0-2.08,1.21l-1.82,3.15a2.39,2.39,0,0,0,0,2.4l1.82,3.15A2.39,2.39,0,0,0,86.47,362h3.64a2.39,2.39,0,0,0,2.08-1.21L94,357.64a2.39,2.39,0,0,0,0-2.4l-1.82-3.15A2.39,2.39,0,0,0,90.11,350.88Z" style="fill:#130B83"></path><path d="M138.48,389.08l-2.84-4.93a3.75,3.75,0,0,0-3.25-1.87H121a3.75,3.75,0,0,0-3.26,1.87l-2.84,4.93a3.77,3.77,0,0,0,0,3.76l2.84,4.92a3.76,3.76,0,0,0,3.26,1.88h11.35a3.76,3.76,0,0,0,3.25-1.88l2.84-4.92A3.77,3.77,0,0,0,138.48,389.08Z" style="fill:#130B83"></path><path d="M138.48,389.08l-2.84-4.93a3.75,3.75,0,0,0-3.25-1.87H121a3.75,3.75,0,0,0-3.26,1.87l-2.84,4.93a3.77,3.77,0,0,0,0,3.76l2.84,4.92a3.76,3.76,0,0,0,3.26,1.88h11.35a3.76,3.76,0,0,0,3.25-1.88l2.84-4.92A3.77,3.77,0,0,0,138.48,389.08Z" style="opacity:0.1"></path><path d="M132.39,382.28H126.7a3.75,3.75,0,0,0-3.25,1.87l-2.84,4.93a3.72,3.72,0,0,0,0,3.76l2.84,4.92a3.76,3.76,0,0,0,3.25,1.88h5.69a3.76,3.76,0,0,0,3.25-1.88l2.84-4.92a3.77,3.77,0,0,0,0-3.76l-2.84-4.93A3.75,3.75,0,0,0,132.39,382.28Z" style="opacity:0.2"></path><ellipse cx="141.84" cy="390.96" rx="12.41" ry="4.25" style="fill:#130B83"></ellipse><ellipse cx="141.84" cy="390.96" rx="12.41" ry="4.25" style="opacity:0.1"></ellipse><path d="M170.06,389.08l-2.84-4.93a3.75,3.75,0,0,0-3.25-1.87H152.61a3.75,3.75,0,0,0-3.25,1.87l-2.84,4.93a3.77,3.77,0,0,0,0,3.76l2.84,4.92a3.76,3.76,0,0,0,3.25,1.88H164a3.76,3.76,0,0,0,3.25-1.88l2.84-4.92A3.77,3.77,0,0,0,170.06,389.08Z" style="fill:#130B83"></path><path d="M170.06,389.08l-2.84-4.93a3.75,3.75,0,0,0-3.25-1.87H152.61a3.75,3.75,0,0,0-3.25,1.87l-2.84,4.93a3.77,3.77,0,0,0,0,3.76l2.84,4.92a3.76,3.76,0,0,0,3.25,1.88H164a3.76,3.76,0,0,0,3.25-1.88l2.84-4.92A3.77,3.77,0,0,0,170.06,389.08Z" style="opacity:0.1"></path><path d="M164,382.28h-5.69a3.75,3.75,0,0,0-3.25,1.87l-2.85,4.93a3.77,3.77,0,0,0,0,3.76l2.85,4.92a3.76,3.76,0,0,0,3.25,1.88H164a3.76,3.76,0,0,0,3.25-1.88l2.84-4.92a3.77,3.77,0,0,0,0-3.76l-2.84-4.93A3.75,3.75,0,0,0,164,382.28Z" style="fill:#130B83"></path><path d="M101.49,391.19l-2.28-3.94a3,3,0,0,0-2.6-1.5H87.53a3,3,0,0,0-2.61,1.5l-2.27,3.94a3,3,0,0,0,0,3l2.27,3.93a3,3,0,0,0,2.61,1.51h9.08a3,3,0,0,0,2.6-1.51l2.28-3.93A3,3,0,0,0,101.49,391.19Z" style="fill:#130B83"></path><path d="M101.49,391.19l-2.28-3.94a3,3,0,0,0-2.6-1.5H87.53a3,3,0,0,0-2.61,1.5l-2.27,3.94a3,3,0,0,0,0,3l2.27,3.93a3,3,0,0,0,2.61,1.51h9.08a3,3,0,0,0,2.6-1.51l2.28-3.93A3,3,0,0,0,101.49,391.19Z" style="opacity:0.1"></path><path d="M96.61,385.75H92.06a3,3,0,0,0-2.6,1.5l-2.28,3.94a3,3,0,0,0,0,3l2.28,3.93a3,3,0,0,0,2.6,1.51h4.55a3,3,0,0,0,2.6-1.51l2.28-3.93a3,3,0,0,0,0-3l-2.28-3.94A3,3,0,0,0,96.61,385.75Z" style="opacity:0.2"></path><path d="M114.1,392.69c0,1.88-4.45,3.4-9.93,3.4s-9.93-1.52-9.93-3.4,4.45-3.4,9.93-3.4S114.1,390.82,114.1,392.69Z" style="fill:#130B83"></path><path d="M114.1,392.69c0,1.88-4.45,3.4-9.93,3.4s-9.93-1.52-9.93-3.4,4.45-3.4,9.93-3.4S114.1,390.82,114.1,392.69Z" style="opacity:0.1"></path><path d="M126.75,391.19l-2.28-3.94a3,3,0,0,0-2.6-1.5h-9.08a3,3,0,0,0-2.6,1.5l-2.28,3.94a3,3,0,0,0,0,3l2.28,3.93a3,3,0,0,0,2.6,1.51h9.08a3,3,0,0,0,2.6-1.51l2.28-3.93A3,3,0,0,0,126.75,391.19Z" style="fill:#130B83"></path><path d="M126.75,391.19l-2.28-3.94a3,3,0,0,0-2.6-1.5h-9.08a3,3,0,0,0-2.6,1.5l-2.28,3.94a3,3,0,0,0,0,3l2.28,3.93a3,3,0,0,0,2.6,1.51h9.08a3,3,0,0,0,2.6-1.51l2.28-3.93A3,3,0,0,0,126.75,391.19Z" style="opacity:0.1"></path><path d="M121.87,385.75h-4.55a3,3,0,0,0-2.6,1.5l-2.27,3.94a3,3,0,0,0,0,3l2.27,3.93a3,3,0,0,0,2.6,1.51h4.55a3,3,0,0,0,2.6-1.51l2.28-3.93a3,3,0,0,0,0-3l-2.28-3.94A3,3,0,0,0,121.87,385.75Z" style="fill:#130B83"></path><path d="M73.8,392.88,72,389.73a2.39,2.39,0,0,0-2.08-1.2H62.64a2.4,2.4,0,0,0-2.09,1.2l-1.82,3.15a2.39,2.39,0,0,0,0,2.4l1.82,3.16a2.42,2.42,0,0,0,2.09,1.2H69.9a2.41,2.41,0,0,0,2.08-1.2l1.82-3.16A2.39,2.39,0,0,0,73.8,392.88Z" style="fill:#130B83"></path><path d="M73.8,392.88,72,389.73a2.39,2.39,0,0,0-2.08-1.2H62.64a2.4,2.4,0,0,0-2.09,1.2l-1.82,3.15a2.39,2.39,0,0,0,0,2.4l1.82,3.16a2.42,2.42,0,0,0,2.09,1.2H69.9a2.41,2.41,0,0,0,2.08-1.2l1.82-3.16A2.39,2.39,0,0,0,73.8,392.88Z" style="opacity:0.1"></path><path d="M69.9,388.53H66.26a2.39,2.39,0,0,0-2.08,1.2l-1.82,3.15a2.39,2.39,0,0,0,0,2.4l1.82,3.16a2.41,2.41,0,0,0,2.08,1.2H69.9a2.41,2.41,0,0,0,2.08-1.2l1.82-3.16a2.39,2.39,0,0,0,0-2.4L72,389.73A2.39,2.39,0,0,0,69.9,388.53Z" style="opacity:0.2"></path><path d="M83.89,394.08c0,1.5-3.56,2.72-7.94,2.72S68,395.58,68,394.08s3.55-2.72,7.94-2.72S83.89,392.58,83.89,394.08Z" style="fill:#130B83"></path><path d="M83.89,394.08c0,1.5-3.56,2.72-7.94,2.72S68,395.58,68,394.08s3.55-2.72,7.94-2.72S83.89,392.58,83.89,394.08Z" style="opacity:0.1"></path><path d="M94,392.88l-1.82-3.15a2.39,2.39,0,0,0-2.08-1.2H82.85a2.4,2.4,0,0,0-2.09,1.2l-1.82,3.15a2.39,2.39,0,0,0,0,2.4l1.82,3.16a2.42,2.42,0,0,0,2.09,1.2h7.26a2.41,2.41,0,0,0,2.08-1.2L94,395.28A2.39,2.39,0,0,0,94,392.88Z" style="fill:#130B83"></path><path d="M94,392.88l-1.82-3.15a2.39,2.39,0,0,0-2.08-1.2H82.85a2.4,2.4,0,0,0-2.09,1.2l-1.82,3.15a2.39,2.39,0,0,0,0,2.4l1.82,3.16a2.42,2.42,0,0,0,2.09,1.2h7.26a2.41,2.41,0,0,0,2.08-1.2L94,395.28A2.39,2.39,0,0,0,94,392.88Z" style="opacity:0.1"></path><path d="M90.11,388.53H86.47a2.39,2.39,0,0,0-2.08,1.2l-1.82,3.15a2.39,2.39,0,0,0,0,2.4l1.82,3.16a2.41,2.41,0,0,0,2.08,1.2h3.64a2.41,2.41,0,0,0,2.08-1.2L94,395.28a2.39,2.39,0,0,0,0-2.4l-1.82-3.15A2.39,2.39,0,0,0,90.11,388.53Z" style="fill:#130B83"></path><path d="M76.43,411.92H62.78a11.51,11.51,0,0,1-11.49-11.79l1.33-51.44a11.44,11.44,0,0,1,11.49-11.2h3.45A11.47,11.47,0,0,1,78.89,347l8.87,51.44a11.5,11.5,0,0,1-11.33,13.45ZM64.11,340.59a8.34,8.34,0,0,0-8.39,8.18l-1.33,51.44a8.39,8.39,0,0,0,8.39,8.61H76.43A8.4,8.4,0,0,0,84.71,399l-8.87-51.44a8.38,8.38,0,0,0-8.28-7Z"></path></g><g id="freepik--Lines--inject-3"><path d="M174.27,234.93a.39.39,0,0,1-.28-.13c-6.47-7.45-10.5-18.17-11.06-29.43a.38.38,0,0,1,.75,0c.55,11.08,4.52,21.64,10.87,29a.38.38,0,0,1,0,.53A.38.38,0,0,1,174.27,234.93Z" style="fill:#130B83"></path><path d="M163.26,202.9a.39.39,0,0,1-.38-.38c0-1.46,0-2.3.12-3.76a.38.38,0,0,1,.4-.34.37.37,0,0,1,.35.4c-.1,1.45-.13,2.24-.12,3.7a.37.37,0,0,1-.37.38Z" style="fill:#130B83"></path><path d="M163.7,196.08h0a.38.38,0,0,1-.32-.43,51.6,51.6,0,0,1,1.09-5.59.38.38,0,0,1,.73.19,49.69,49.69,0,0,0-1.08,5.51A.37.37,0,0,1,163.7,196.08Z" style="fill:#130B83"></path><path d="M185.38,239.85a.44.44,0,0,1-.22-.07c-11.59-8.22-18.7-24.66-17.69-40.93a.37.37,0,1,1,.74.05c-1,16,6,32.2,17.39,40.27a.37.37,0,0,1,.09.52A.4.4,0,0,1,185.38,239.85Z" style="fill:#130B83"></path><path d="M280.07,171.85a.37.37,0,0,1-.29-.14,30.34,30.34,0,0,0-8.77-7.36.38.38,0,1,1,.36-.66,31.1,31.1,0,0,1,9,7.54.38.38,0,0,1-.29.62Z" style="fill:#130B83"></path><path d="M290.89,201.37a.38.38,0,0,1-.38-.36,50.67,50.67,0,0,0-8.86-26.86.37.37,0,0,1,.09-.52.38.38,0,0,1,.53.09,51.54,51.54,0,0,1,9,27.26.38.38,0,0,1-.35.39Z" style="fill:#130B83"></path><path d="M274.64,172.92a.34.34,0,0,1-.26-.11,27.45,27.45,0,0,0-13.9-8,.38.38,0,0,1,.15-.74,28.22,28.22,0,0,1,14.28,8.21.38.38,0,0,1,0,.53A.39.39,0,0,1,274.64,172.92Z" style="fill:#130B83"></path><path d="M279.32,178.7a.4.4,0,0,1-.32-.17,40.1,40.1,0,0,0-2.5-3.36.38.38,0,1,1,.58-.48,42.36,42.36,0,0,1,2.55,3.43.38.38,0,0,1-.11.52A.36.36,0,0,1,279.32,178.7Z" style="fill:#130B83"></path><path d="M286,194.64a.38.38,0,0,1-.37-.29,47.4,47.4,0,0,0-5-13.18.37.37,0,0,1,.65-.37,48.3,48.3,0,0,1,5.11,13.39.38.38,0,0,1-.29.44Z" style="fill:#130B83"></path></g><g id="freepik--Character--inject-3"><path d="M184.18,173.49,181.84,169a3,3,0,0,0-2.67-1.71h-9.34a3,3,0,0,0-2.68,1.71l-2.34,4.47a3.73,3.73,0,0,0,0,3.41l2.34,4.47a3,3,0,0,0,2.68,1.71h9.34a3,3,0,0,0,2.67-1.71l2.34-4.47A3.67,3.67,0,0,0,184.18,173.49Z" style="fill:#130B83"></path><path d="M184.18,173.49,181.84,169a3,3,0,0,0-2.67-1.71h-9.34a3,3,0,0,0-2.68,1.71l-2.34,4.47a3.73,3.73,0,0,0,0,3.41l2.34,4.47a3,3,0,0,0,2.68,1.71h9.34a3,3,0,0,0,2.67-1.71l2.34-4.47A3.67,3.67,0,0,0,184.18,173.49Z" style="opacity:0.2"></path><path d="M179,167.31h-4.31a3.24,3.24,0,0,0-2.88,1.75l-2.42,4.63a3.21,3.21,0,0,0,0,3l2.42,4.64a3.25,3.25,0,0,0,2.88,1.74H179a3.25,3.25,0,0,0,2.87-1.74l2.43-4.64a3.27,3.27,0,0,0,0-3l-2.43-4.63A3.24,3.24,0,0,0,179,167.31Z" style="fill:#130B83"></path><path d="M197.15,175.2c0,2.13-4.57,3.86-10.21,3.86s-10.21-1.73-10.21-3.86,4.58-3.86,10.21-3.86S197.15,173.07,197.15,175.2Z" style="fill:#130B83"></path><path d="M197.15,175.2c0,2.13-4.57,3.86-10.21,3.86s-10.21-1.73-10.21-3.86,4.58-3.86,10.21-3.86S197.15,173.07,197.15,175.2Z" style="opacity:0.2"></path><path d="M281.37,212.6l.93-5a3.24,3.24,0,0,0-1.1-3.11l-7.6-6.24a3.26,3.26,0,0,0-3.26-.47l-4.74,1.9a3.54,3.54,0,0,0-2.17,2.63l-.93,5a3.23,3.23,0,0,0,1.1,3.11l7.6,6.24a3.22,3.22,0,0,0,3.26.47l4.74-1.89A3.56,3.56,0,0,0,281.37,212.6Z" style="fill:#130B83"></path><path d="M281.37,212.6l.93-5a3.24,3.24,0,0,0-1.1-3.11l-7.6-6.24a3.26,3.26,0,0,0-3.26-.47l-4.74,1.9a3.54,3.54,0,0,0-2.17,2.63l-.93,5a3.23,3.23,0,0,0,1.1,3.11l7.6,6.24a3.22,3.22,0,0,0,3.26.47l4.74-1.89A3.56,3.56,0,0,0,281.37,212.6Z" style="opacity:0.2"></path><path d="M281.14,204.42l-3.67-3a3.33,3.33,0,0,0-3.36-.52l-4.82,1.92a3.36,3.36,0,0,0-2,2.49l-.95,5.11a3.33,3.33,0,0,0,1.16,3.18l3.67,3a3.34,3.34,0,0,0,3.35.52l4.83-1.92a3.36,3.36,0,0,0,2-2.49l.95-5.11A3.35,3.35,0,0,0,281.14,204.42Z" style="fill:#130B83"></path><path d="M238,182.65s10.92-1.37,13.42,11a114.22,114.22,0,0,1,2.28,20.51,53.86,53.86,0,0,1,7.75,1c3.06.52,4.9,1.23,11.95,2.55,0,0,3.86-5.53,5.79-6.67,1-.62,3.66-1.31,4.79-.84,1,.39,3.62,1.77,3.87,2.78.19.76-1.66,4.25-1.66,4.25s-7.77,4.68-9.62,5.08c-6.05,1.34-10.09,1.82-20.41,2.74-13.47,1.2-12.28-4.43-14.26-10.64S233.8,180.24,238,182.65Z" style="fill:#ffb473"></path><path d="M233.33,181.5a.18.18,0,0,0-.18.27c.89,1.54,4.28,8.14-3.87,8.15s-12.15-6.82-12.86-8.22a.53.53,0,0,0-.4-.28c-1.8-.21-11.56-1-11.94,6.21-.41,8,7.92,19.49,9.45,44.71a34.07,34.07,0,0,0,19.16,4c10.82-1,15.26-4.56,15.26-4.56a123,123,0,0,1,1.22-17.07c2.21-15.86,1.24-21-10.43-32.58Z" style="fill:#263238"></path><path d="M255.62,398.73a20,20,0,0,1,.33,8.09c-.83,3.6-.64,7.07,1.29,7.11,6.34.14,5.38-1.3,10-1s11.19.66,11.77-.92c.86-2.38-7.36-3.38-10.37-5.41-4.11-2.76-4.74-10.8-4.74-10.8Z" style="fill:#ffb473"></path><path d="M264.63,400.09l-8.57,1.06c-3.21-10.78-10.35-35-12.67-45.52a131.27,131.27,0,0,1-2.25-14.78c-.91-9-.25-12.42-1-16.45-.82-4.37-4.59-12.45-6.28-16.54-1.45-3.49-4.11-10.49-6.44-16.72-.12-.3-.23-.6-.34-.89-2.29-6.09-4.19-11.23-4.19-11.23-15.83-13.76-10.36-34.64-7.56-42.39.26-.72.5-1.32.7-1.8.32-.8.53-1.24.53-1.24l6.42-.32,7.43-.38h0l5.12-.26,8.16-.41,3.78-.19.12,1.54.23,3,1.52,19.49,8.88,65.8Z" style="fill:#130B83"></path><path d="M232.31,254.33H221.47L217,272.28a31.08,31.08,0,0,0,5.85,6.74s4.53,12.29,8,21.41C233,286.28,232.31,254.33,232.31,254.33Z" style="opacity:0.2"></path><path d="M190.36,395.85a27.75,27.75,0,0,1-2,9.56c-1.93,4.29-3.05,6.51,2,6.85s6.44.28,10.94,1.3,10.43.23,10.09-1.55-5.9-1-9.54-5-4-7.63-3.33-9.67Z" style="fill:#ffb473"></path><path d="M236.22,233.24h0c0,.06,0,.33-.08.78-.06.62-.15,1.58-.27,2.78-.08.83-.17,1.78-.28,2.83-.77,7.6-2.05,19.91-2.85,25.11-1,6.65-2.89,15.73-5.27,26.07h0c0,.1-.05.2-.07.31-10.06,43.53-28.88,109-28.88,109l-8.69-1.33c.83-11.22,2.81-36.42,4.38-47a128,128,0,0,1,3.15-14.38c2.34-8.53,4.17-11.32,4.89-15.31.78-4.33.15-13.37,0-17.84-.2-7.8.06-31.12.06-31.12.12-17.47,8.83-36.09,10.8-40.07.25-.51.39-.78.39-.78s13.89.59,16.86.55h0Z" style="fill:#130B83"></path><path d="M247.59,233.57c-1.45,2.2-7.81,2.82-11.72,3.24a46.34,46.34,0,0,1-19.86-2c-.39-.13-.79-.28-1.19-.43-.22-.08-.43-.2-.65-.28a1.63,1.63,0,0,1-1-1c.25-.51.39-.78.39-.78s13.89.59,16.86.55h0l5.12-.26,8.16-.41,3.78-.19Z" style="opacity:0.2"></path><path d="M214.1,188.36c.23-7.36-7.86-10.42-14.34,4.09a102.37,102.37,0,0,0-5,14.71s-5.86-11.56-8.24-22.69c0,0,6-5.61,6.45-8.28.27-1.48-.67-4.91-2-5.67-1.72-1-6.51-.1-7.9,1.34-2.18,2.25-1.72,12.41-1.72,12.41a79.27,79.27,0,0,0,3.73,27.54c5.28,16.66,16.53,8.49,20.82.55C209.36,206,213.88,195.69,214.1,188.36Z" style="fill:#ffb473"></path><path d="M213.61,154.42c-.31,2.28-2.11,5.32-4.45,6.16a2,2,0,0,1-2.13-.39,1.42,1.42,0,0,1-.68-.88,10.06,10.06,0,0,1-1.94-.24c-1-.23-1.68-1.7-.8-2.36,4-2.92,5.35-7.26,4.46-9.16-4.49-9.61,5.4-20,13.26-12.75,8.8,8.14-3.37,11-7.83,10.8C213.27,145.59,214.46,150.74,213.61,154.42Z" style="fill:#263238"></path><path d="M216.83,147.31s-2.58-4,.38-7.1,6.84-.5,6.84-.5Z" style="fill:#130B83"></path><path d="M217.8,181.48h-2.62c1.5,2.66,8.08,11.65,15.76,11.06,7.21-.56,6.87-8.2,4.61-10.88a12.72,12.72,0,0,1-2.44-.3c-3.36-.88-4.25-4.75-3.75-7.92l-9.92-7.28a35.44,35.44,0,0,1,.67,13.38A2.33,2.33,0,0,1,217.8,181.48Z" style="fill:#ffb473"></path><path d="M216.94,153.88c-.15,8.23-.4,11.71,3.4,16.24,5.72,6.81,15.85,5.2,18.46-2.81,2.34-7.22,2.2-19.45-5.55-23.35a11.21,11.21,0,0,0-16.31,9.92Z" style="fill:#ffb473"></path><path d="M234.81,159.76a18.11,18.11,0,0,0,2.3,4.32,2.85,2.85,0,0,1-2.39.4Z" style="fill:#ec883e"></path><path d="M228.57,155.5a.42.42,0,0,1-.14-.09.32.32,0,0,1,0-.46h0a3.79,3.79,0,0,1,3.33-1.11.34.34,0,0,1,.25.39.33.33,0,0,1-.38.25,3.19,3.19,0,0,0-2.76.94A.32.32,0,0,1,228.57,155.5Z" style="fill:#2e353a"></path><path d="M239.82,155.84a.37.37,0,0,1-.15-.08,3.13,3.13,0,0,0-2.74-.91.33.33,0,0,1-.4-.24h0a.34.34,0,0,1,.25-.4,3.84,3.84,0,0,1,3.35,1.08.32.32,0,0,1,0,.46.33.33,0,0,1-.34.09Z" style="fill:#2e353a"></path><path d="M229.21,158.59c0,.67.28,1.23.72,1.26s.82-.49.85-1.17-.28-1.22-.71-1.25S229.25,157.92,229.21,158.59Z" style="fill:#2e353a"></path><path d="M236.75,159.05c0,.66.28,1.22.72,1.25s.82-.49.86-1.16-.28-1.23-.71-1.26S236.79,158.37,236.75,159.05Z" style="fill:#2e353a"></path><path d="M237.42,157.91l1.63-.36S238.15,158.74,237.42,157.91Z" style="fill:#2e353a"></path><path d="M229.88,157.46l1.63-.37S230.61,158.29,229.88,157.46Z" style="fill:#2e353a"></path><path d="M235.21,166.93s-1.84-.87-7.33-1.78c.19,2.08,1,3.87,3.84,4.33a3,3,0,0,0,3.41-2.27C235.16,167.11,235.19,167,235.21,166.93Z" style="fill:#2e353a"></path><path d="M230.78,167.7a4.34,4.34,0,0,1,2.85,1.47,2.83,2.83,0,0,1-1.89.29A4.28,4.28,0,0,1,228.9,168,2.68,2.68,0,0,1,230.78,167.7Z" style="fill:#882b29"></path><path d="M235,166.84a1.39,1.39,0,0,1-1.08.83,25.71,25.71,0,0,1-4.75-1.32,1.5,1.5,0,0,1-1-1.18A37.12,37.12,0,0,1,235,166.84Z" style="fill:#fff"></path><path d="M218.27,158.78a7.9,7.9,0,0,0,4.11-5.91c.48-4.17,4.7-3.43,4.7-3.43s12.16,4,15.7-.55-3.83-4.26-3.83-4.26,3-7.75-4.39-3.52c0,0-9.14-5.15-15.47-.05-10.23,8.25-4.89,17.07-4.89,17.07s-4,5.3.9,5.33c0,0-3,1.79,0,3.62C219.82,169.93,218.27,158.78,218.27,158.78Z" style="fill:#263238"></path><path d="M239.56,150.75c-11.42-4.52-21.15-.48-26.38,4.83,0,.16,0,.28-.05.38a2,2,0,0,0,1.06,2.17h0c.51-.49,11.28-11.26,25.45-4.93,0,0,.71-.49.65-.93S240.09,151,239.56,150.75Z" style="fill:#130B83"></path><path d="M210.17,173.49,207.83,169a3,3,0,0,0-2.68-1.71h-9.34a3.07,3.07,0,0,0-2.68,1.71l-2.34,4.47a3.73,3.73,0,0,0,0,3.41l2.34,4.47a3.07,3.07,0,0,0,2.68,1.71h9.34a3,3,0,0,0,2.68-1.71l2.34-4.47A3.73,3.73,0,0,0,210.17,173.49Z" style="fill:#130B83"></path><path d="M210.17,173.49,207.83,169a3,3,0,0,0-2.68-1.71h-9.34a3.07,3.07,0,0,0-2.68,1.71l-2.34,4.47a3.73,3.73,0,0,0,0,3.41l2.34,4.47a3.07,3.07,0,0,0,2.68,1.71h9.34a3,3,0,0,0,2.68-1.71l2.34-4.47A3.73,3.73,0,0,0,210.17,173.49Z" style="opacity:0.2"></path><path d="M205,167.31h-4.32a3.24,3.24,0,0,0-2.87,1.75l-2.43,4.63a3.27,3.27,0,0,0,0,3l2.43,4.64a3.25,3.25,0,0,0,2.87,1.74H205a3.25,3.25,0,0,0,2.88-1.74l2.42-4.64a3.21,3.21,0,0,0,0-3l-2.42-4.63A3.24,3.24,0,0,0,205,167.31Z" style="fill:#130B83"></path><path d="M289.48,221.76c-1.35,1.64-6.17-.07-10.76-3.84s-7.21-8.16-5.86-9.81,6.17.07,10.76,3.84S290.83,220.11,289.48,221.76Z" style="fill:#130B83"></path><path d="M289.48,221.76c-1.35,1.64-6.17-.07-10.76-3.84s-7.21-8.16-5.86-9.81,6.17.07,10.76,3.84S290.83,220.11,289.48,221.76Z" style="opacity:0.2"></path><path d="M299.08,227.61l.93-5a3.23,3.23,0,0,0-1.1-3.11l-7.6-6.24a3.22,3.22,0,0,0-3.26-.47l-4.74,1.89a3.58,3.58,0,0,0-2.17,2.64l-.93,5a3.24,3.24,0,0,0,1.1,3.11l7.6,6.24a3.22,3.22,0,0,0,3.26.47l4.74-1.89A3.58,3.58,0,0,0,299.08,227.61Z" style="fill:#130B83"></path><path d="M299.08,227.61l.93-5a3.23,3.23,0,0,0-1.1-3.11l-7.6-6.24a3.22,3.22,0,0,0-3.26-.47l-4.74,1.89a3.58,3.58,0,0,0-2.17,2.64l-.93,5a3.24,3.24,0,0,0,1.1,3.11l7.6,6.24a3.22,3.22,0,0,0,3.26.47l4.74-1.89A3.58,3.58,0,0,0,299.08,227.61Z" style="opacity:0.2"></path><path d="M298.85,219.43l-3.67-3a3.35,3.35,0,0,0-3.36-.52L287,217.82a3.33,3.33,0,0,0-2,2.49l-.95,5.1a3.34,3.34,0,0,0,1.16,3.19l3.67,3a3.34,3.34,0,0,0,3.35.52L297,230.2a3.33,3.33,0,0,0,2-2.48l.95-5.11A3.35,3.35,0,0,0,298.85,219.43Z" style="fill:#130B83"></path></g></svg>
